<svg id="Filled" height="512" viewBox="0 0 512 512" width="512" xmlns="http://www.w3.org/2000/svg"><path d="m192 72h32v64h-32z" fill="#4f5659"/><circle cx="208" cy="304" fill="#596063" r="184"/><circle cx="208" cy="304" fill="#ad6643" r="152"/><path d="m488 72h-328a24 24 0 0 1 -24-24 24 24 0 0 1 24-24h328z" fill="#596063"/><path d="m208 344a8 8 0 0 1 0-16 8.009 8.009 0 0 0 8-8v-16a8 8 0 0 1 16 0v16a24.027 24.027 0 0 1 -24 24z" fill="#e9eef2"/><path d="m272 400h-128a32 32 0 0 1 -32-32h192a32 32 0 0 1 -32 32z" fill="#e9eef2"/><path d="m160 368a32 32 0 0 1 -32-32v-64h128v64a32 32 0 0 1 -32 32z" fill="#dadcde"/><path d="m48 304c0 88.224 71.775 160 160 160s160-71.776 160-160-71.775-160-160-160-160 71.776-160 160zm304 0c0 79.4-64.6 144-144 144s-144-64.6-144-144 64.6-144 144-144 144 64.6 144 144z"/><path d="m488 16h-328a32 32 0 0 0 0 64h24v33.5c-94.583 11.844-168 92.758-168 190.5 0 105.869 86.131 192 192 192s192-86.131 192-192c0-97.742-73.416-178.656-168-190.5v-33.5h256a8 8 0 0 0 8-8v-48a8 8 0 0 0 -8-8zm-104 288c0 97.047-78.953 176-176 176s-176-78.953-176-176 78.953-176 176-176 176 78.953 176 176zm-168-191.821c-2.655-.109-5.319-.179-8-.179s-5.346.07-8 .179v-32.179h16zm264-48.179h-320a16 16 0 0 1 0-32h320z"/><path d="m168 192v-8a8 8 0 0 0 -16 0v8a24.027 24.027 0 0 0 24 24h64a8 8 0 0 1 0 16h-32a24.027 24.027 0 0 0 -24 24v8h-56a8 8 0 0 0 -8 8v64a39.788 39.788 0 0 0 8.022 24h-16.022a8 8 0 0 0 -8 8 40.045 40.045 0 0 0 40 40h128a40.045 40.045 0 0 0 40-40 8 8 0 0 0 -8-8h-48.022a39.788 39.788 0 0 0 8.022-24v-8h8a40.045 40.045 0 0 0 40-40 24.027 24.027 0 0 0 -24-24h-88v-8a8.009 8.009 0 0 1 8-8h32a24 24 0 0 0 0-48h-64a8.009 8.009 0 0 1 -8-8zm104 200h-128a24.041 24.041 0 0 1 -22.629-16h173.258a24.041 24.041 0 0 1 -22.629 16zm24-104a24.027 24.027 0 0 1 -24 24h-8v-32h24a8.009 8.009 0 0 1 8 8zm-48 48a24.027 24.027 0 0 1 -24 24h-64a24.027 24.027 0 0 1 -24-24v-56h112z"/><path d="m208 344a24.027 24.027 0 0 0 24-24v-16a8 8 0 0 0 -16 0v16a8.009 8.009 0 0 1 -8 8 8 8 0 0 0 0 16z"/></svg>